<svg xmlns="http://www.w3.org/2000/svg" width="21.72" height="21.72" viewBox="0 0 21.72 21.72">
  <path id="icons8-linkedin" d="M22.307,3H5.413A2.413,2.413,0,0,0,3,5.413V22.307A2.413,2.413,0,0,0,5.413,24.72H22.307a2.413,2.413,0,0,0,2.413-2.413V5.413A2.413,2.413,0,0,0,22.307,3ZM10.24,19.893H7.2V11.447H10.24ZM8.664,9.9A1.442,1.442,0,0,1,7.112,8.451,1.475,1.475,0,0,1,8.767,7a1.442,1.442,0,0,1,1.552,1.448A1.475,1.475,0,0,1,8.664,9.9ZM21.1,19.893H18.153V15.277c0-1.277-.786-1.571-1.08-1.571s-1.277.2-1.277,1.571v4.617H12.752V11.447H15.8v1.179a2.753,2.753,0,0,1,2.651-1.179c1.473,0,2.652,1.179,2.652,3.83Z" transform="translate(-3 -3)" fill="#6c6c6c"/>
</svg>
