<svg xmlns="http://www.w3.org/2000/svg" width="13.416" height="13.416" viewBox="0 0 13.416 13.416">
  <path id="percent_FILL0_wght600_GRAD0_opsz20" d="M6.229,9.167A2.816,2.816,0,0,1,4.146,8.3a2.844,2.844,0,0,1-.854-2.073,2.818,2.818,0,0,1,.864-2.083,2.846,2.846,0,0,1,2.073-.854,2.818,2.818,0,0,1,2.083.864,2.844,2.844,0,0,1,.855,2.073A2.816,2.816,0,0,1,8.3,8.312,2.842,2.842,0,0,1,6.229,9.167Zm0-2.042a.9.9,0,1,0,0-1.792.9.9,0,0,0-.635,1.532A.864.864,0,0,0,6.229,7.125Zm7.542,9.583a2.935,2.935,0,0,1-2.938-2.937,2.936,2.936,0,0,1,2.938-2.938,2.934,2.934,0,0,1,2.937,2.938,2.818,2.818,0,0,1-.864,2.083A2.846,2.846,0,0,1,13.771,16.708Zm0-2.041a.889.889,0,1,0-.636-.261A.862.862,0,0,0,13.771,14.667ZM5.062,16.375,3.625,14.938,14.938,3.625l1.437,1.437Z" transform="translate(-3.292 -3.292)" fill="#707070"/>
</svg>
