<svg xmlns="http://www.w3.org/2000/svg" width="16.9" height="16.9" viewBox="0 0 16.9 16.9">
  <path id="apps_FILL0_wght600_GRAD0_opsz24" d="M5.8,20.45A2.262,2.262,0,0,1,3.55,18.2a2.1,2.1,0,0,1,.663-1.55A2.185,2.185,0,0,1,5.8,16a2.116,2.116,0,0,1,1.55.65A2.116,2.116,0,0,1,8,18.2a2.188,2.188,0,0,1-.65,1.588A2.1,2.1,0,0,1,5.8,20.45Zm6.2,0a2.1,2.1,0,0,1-1.55-.662A2.188,2.188,0,0,1,9.8,18.2a2.136,2.136,0,0,1,.638-1.55,2.187,2.187,0,0,1,3.112,0,2.116,2.116,0,0,1,.65,1.55,2.209,2.209,0,0,1-.638,1.588A2.084,2.084,0,0,1,12,20.45Zm6.2,0a2.1,2.1,0,0,1-1.55-.662A2.188,2.188,0,0,1,16,18.2,2.22,2.22,0,0,1,18.2,16a2.188,2.188,0,0,1,1.588.65,2.1,2.1,0,0,1,.662,1.55,2.26,2.26,0,0,1-2.25,2.25ZM5.8,14.2a2.206,2.206,0,0,1-1.587-.638,2.157,2.157,0,0,1,0-3.112A2.185,2.185,0,0,1,5.8,9.8a2.136,2.136,0,0,1,1.55.638,2.187,2.187,0,0,1,0,3.112A2.116,2.116,0,0,1,5.8,14.2Zm6.2,0a2.136,2.136,0,0,1-1.55-.638A2.1,2.1,0,0,1,9.8,12a2.136,2.136,0,0,1,.638-1.55A2.1,2.1,0,0,1,12,9.8a2.136,2.136,0,0,1,1.55.638A2.1,2.1,0,0,1,14.2,12a2.136,2.136,0,0,1-.638,1.55A2.1,2.1,0,0,1,12,14.2Zm6.2,0a2.136,2.136,0,0,1-1.55-.638,2.187,2.187,0,0,1,0-3.112A2.116,2.116,0,0,1,18.2,9.8a2.209,2.209,0,0,1,1.588.638,2.16,2.16,0,0,1,0,3.112,2.188,2.188,0,0,1-1.588.65ZM5.8,8a2.185,2.185,0,0,1-1.587-.65A2.1,2.1,0,0,1,3.55,5.8a2.166,2.166,0,0,1,.663-1.588A2.165,2.165,0,0,1,5.8,3.55a2.1,2.1,0,0,1,1.55.662A2.188,2.188,0,0,1,8,5.8a2.116,2.116,0,0,1-.65,1.55A2.116,2.116,0,0,1,5.8,8ZM12,8a2.116,2.116,0,0,1-1.55-.65A2.116,2.116,0,0,1,9.8,5.8a2.209,2.209,0,0,1,.638-1.588,2.16,2.16,0,0,1,3.112,0A2.188,2.188,0,0,1,14.2,5.8a2.136,2.136,0,0,1-.638,1.55A2.1,2.1,0,0,1,12,8Zm6.2,0a2.116,2.116,0,0,1-1.55-.65A2.116,2.116,0,0,1,16,5.8a2.188,2.188,0,0,1,.65-1.588A2.1,2.1,0,0,1,18.2,3.55,2.26,2.26,0,0,1,20.45,5.8a2.1,2.1,0,0,1-.662,1.55A2.188,2.188,0,0,1,18.2,8Z" transform="translate(-3.55 -3.55)" fill="#6c6c6c"/>
</svg>
