<svg xmlns="http://www.w3.org/2000/svg" width="25.894" height="30.25" viewBox="0 0 25.894 30.25">
  <g id="Group_2" transform="translate(-1448.463 -334)">
    <path id="local_mall_FILL0_wght600_GRAD0_opsz48" d="M8.031,31.8a2.624,2.624,0,0,1-1.919-.812A2.663,2.663,0,0,1,5.3,29.034V11.092a2.663,2.663,0,0,1,.812-1.953,2.624,2.624,0,0,1,1.919-.812h3.423a6.711,6.711,0,0,1,1.884-4.788A6.231,6.231,0,0,1,18.057,1.55a6.8,6.8,0,0,1,4.892,1.988,6.419,6.419,0,0,1,2.057,4.788h3.423a2.774,2.774,0,0,1,2.766,2.766V29.034A2.774,2.774,0,0,1,28.428,31.8Zm0-2.766h20.4V11.092H8.031ZM18.23,19.6a6.681,6.681,0,0,0,4.892-2.057,6.681,6.681,0,0,0,2.057-4.892H22.447a4.25,4.25,0,0,1-4.218,4.218,4.25,4.25,0,0,1-4.218-4.218H11.281a6.681,6.681,0,0,0,2.057,4.892A6.681,6.681,0,0,0,18.23,19.6ZM14.185,8.326h8.09a3.861,3.861,0,0,0-1.158-2.869A3.949,3.949,0,0,0,18.23,4.316a3.949,3.949,0,0,0-2.887,1.141,3.861,3.861,0,0,0-1.158,2.869ZM8.031,29.034v0Z" transform="translate(1443.163 332.45)" fill="#6c6c6c"/>
  </g>
</svg>
