<svg xmlns="http://www.w3.org/2000/svg" width="24.133" height="19.307" viewBox="0 0 24.133 19.307">
  <path id="icons8-youtube" d="M25.629,6.638A3.024,3.024,0,0,0,23.5,4.5C21.613,4,14.067,4,14.067,4S6.52,4,4.638,4.5A3.024,3.024,0,0,0,2.5,6.638,43.009,43.009,0,0,0,2,13.653a43.009,43.009,0,0,0,.5,7.016A3.024,3.024,0,0,0,4.638,22.8c1.882.5,9.429.5,9.429.5s7.546,0,9.429-.5a3.022,3.022,0,0,0,2.133-2.133,43.009,43.009,0,0,0,.5-7.016A43.009,43.009,0,0,0,25.629,6.638Zm-13.976,11.2V9.473l7.24,4.18Z" transform="translate(-2 -4)" fill="#6c6c6c"/>
</svg>
