<svg xmlns="http://www.w3.org/2000/svg" width="14.792" height="16.792" viewBox="0 0 14.792 16.792">
  <path id="today_FILL0_wght600_GRAD0_opsz20" d="M8.1,14.6a2.01,2.01,0,0,1-1.427-3.416A1.893,1.893,0,0,1,8.083,10.6a1.972,1.972,0,0,1,1.438.573,1.9,1.9,0,0,1,.583,1.406,1.954,1.954,0,0,1-.583,1.438A1.929,1.929,0,0,1,8.1,14.6ZM4.646,18.4A2.028,2.028,0,0,1,2.6,16.354V5.646A2.028,2.028,0,0,1,4.646,3.6H6v-2H7.771v2h4.458v-2H14v2h1.354A2.028,2.028,0,0,1,17.4,5.646V16.354A2.028,2.028,0,0,1,15.354,18.4Zm0-2.042H15.354V9H4.646Zm0-8.854H15.354V5.646H4.646Zm0,0v0Z" transform="translate(-2.604 -1.604)" fill="#6c6c6c"/>
</svg>
