<svg xmlns="http://www.w3.org/2000/svg" width="14.796" height="14.793" viewBox="0 0 14.796 14.793">
  <path id="call_FILL1_wght600_GRAD0_opsz20" d="M15.917,17.354a14.085,14.085,0,0,1-4.99-1.323,14.458,14.458,0,0,1-4.115-2.906A15.244,15.244,0,0,1,3.917,9,13.57,13.57,0,0,1,2.6,4.021,1.285,1.285,0,0,1,2.979,2.99a1.347,1.347,0,0,1,1-.428H6.812a1.594,1.594,0,0,1,1.021.313,1.7,1.7,0,0,1,.563.917l.479,1.979a1.533,1.533,0,0,1-.01.812,1.514,1.514,0,0,1-.427.667l-2.1,1.938A11.271,11.271,0,0,0,8.2,11.656a10.635,10.635,0,0,0,2.427,1.823l2.146-2.041a1.489,1.489,0,0,1,.719-.407,1.864,1.864,0,0,1,.76.011l1.917.458a1.6,1.6,0,0,1,.916.542,1.563,1.563,0,0,1,.313,1v2.916a1.2,1.2,0,0,1-.511,1.073A1.61,1.61,0,0,1,15.917,17.354Z" transform="translate(-2.6 -2.562)" fill="#a0be3a"/>
</svg>
