<svg xmlns="http://www.w3.org/2000/svg" width="21" height="19.5" viewBox="0 0 21 19.5">
  <path id="favorite_FILL1_wght600_GRAD0_opsz24" d="M11.975,21.65,10.2,20.05q-2.575-2.325-4.262-4.012A25.871,25.871,0,0,1,3.275,13,10.067,10.067,0,0,1,1.9,10.512,7.066,7.066,0,0,1,1.5,8.15,5.827,5.827,0,0,1,3.213,3.875,5.762,5.762,0,0,1,7.475,2.15a6.17,6.17,0,0,1,2.463.5,6.09,6.09,0,0,1,2.037,1.425A6.359,6.359,0,0,1,14.038,2.65a6.1,6.1,0,0,1,2.437-.5,5.894,5.894,0,0,1,6.025,6,7.321,7.321,0,0,1-.387,2.35,9.305,9.305,0,0,1-1.375,2.487,27.847,27.847,0,0,1-2.688,3.038q-1.7,1.7-4.3,4.025Z" transform="translate(-1.5 -2.15)" fill="#ffc10e"/>
</svg>
