<svg xmlns="http://www.w3.org/2000/svg" width="20.95" height="20.95" viewBox="0 0 20.95 20.95">
  <path id="info_FILL1_wght600_GRAD0_opsz24" d="M10.8,17.2h2.4V11H10.8ZM12,9.275a1.241,1.241,0,1,0-.912-.363A1.238,1.238,0,0,0,12,9.275Zm0,13.2a10.182,10.182,0,0,1-4.1-.825A10.511,10.511,0,0,1,2.35,16.1,10.182,10.182,0,0,1,1.525,12,10.182,10.182,0,0,1,2.35,7.9,10.511,10.511,0,0,1,7.9,2.35,10.182,10.182,0,0,1,12,1.525a10.182,10.182,0,0,1,4.1.825A10.5,10.5,0,0,1,21.65,7.9a10.182,10.182,0,0,1,.825,4.1,10.182,10.182,0,0,1-.825,4.1,10.5,10.5,0,0,1-5.55,5.55,10.182,10.182,0,0,1-4.1.825Z" transform="translate(-1.525 -1.525)" fill="#6c6c6c"/>
</svg>
