<svg id="Group_37" data-name="Group 37" xmlns="http://www.w3.org/2000/svg" width="692.525" height="231.063"
     viewBox="0 0 692.525 231.063">
  <defs>
    <clipPath id="clip-path">
      <rect id="Rectangle_13" width="692.525" height="231.063" fill="#7da83f"/>
    </clipPath>
    <clipPath id="clip-path-2">
      <rect id="Rectangle_11" width="533.59" height="116.465" fill="#7da83f"/>
    </clipPath>
    <clipPath id="clip-path-3">
      <rect id="Rectangle_12" width="692.524" height="116.548" fill="#7da83f"/>
    </clipPath>
  </defs>
  <g id="Group_36" clip-path="url(#clip-path)">
    <g id="Group_32" style="mix-blend-mode: normal;isolation: isolate">
      <g id="Group_31">
        <g id="Group_30" clip-path="url(#clip-path-2)">
          <path id="Path_94" d="M35.478-77.841a12.472,12.472,0,0,0-8.505-11.583c-1.944-.567-3.807-1.62-3.807-4.212V-94.77a1.531,1.531,0,0,0-1.62-1.62H8.667a1.531,1.531,0,0,0-1.62,1.62v4.536a12.064,12.064,0,0,0,8.343,11.5,5.757,5.757,0,0,1,3.888,5.265v27.3A24.372,24.372,0,0,0,2.43-23,24.181,24.181,0,0,0,26.649,1.215,24.25,24.25,0,0,0,50.949-23,24.165,24.165,0,0,0,35.478-45.765ZM26.649-14.9a8.177,8.177,0,0,1-8.1-8.1,8.194,8.194,0,0,1,8.1-8.181A8.09,8.09,0,0,1,34.749-23,8.176,8.176,0,0,1,26.649-14.9Zm85.05-82.7a23.161,23.161,0,0,0-15.8,6.156,23.161,23.161,0,0,0-15.795-6.156,24.319,24.319,0,0,0-24.3,24.3V-1.62A1.469,1.469,0,0,0,57.348,0H70.389a1.531,1.531,0,0,0,1.62-1.62V-73.305a8.194,8.194,0,0,1,8.1-8.181,8.125,8.125,0,0,1,8.019,8.181V-41.8a1.469,1.469,0,0,0,1.539,1.62h12.312a1.531,1.531,0,0,0,1.62-1.62V-73.305a8.178,8.178,0,0,1,8.019-8.181,8.21,8.21,0,0,1,8.181,8.181V-1.62A1.469,1.469,0,0,0,121.338,0h13.041A1.531,1.531,0,0,0,136-1.62V-73.305A24.267,24.267,0,0,0,111.7-97.605Zm29.97,49.329c0,13.527,11.421,25.272,24.867,29.808l11.5,3.888c-2.754,3.564-4.86,8.829-4.86,13.041C173.1-.486,173.826,0,174.8,0H188a1.189,1.189,0,0,0,1.3-1.053c.891-4.293,3.888-7.047,8.019-7.047,3.888,0,7.209,2.592,8.1,7.047A1.189,1.189,0,0,0,206.712,0h13.122c.972,0,1.7-.486,1.62-1.539,0-9.882-8.343-18.711-19.116-22.113l-30.618-9.72a20.06,20.06,0,0,1-13.932-19.2v-20.9a8.107,8.107,0,0,1,8.019-8.1,8.124,8.124,0,0,1,8.1,8.1v22.032a1.531,1.531,0,0,0,1.62,1.62h12.15a1.531,1.531,0,0,0,1.62-1.62v-21.87a8.055,8.055,0,0,1,8.019-8.1,8.177,8.177,0,0,1,8.1,8.1v21.87a1.531,1.531,0,0,0,1.62,1.62h12.15a1.531,1.531,0,0,0,1.62-1.62V-73.386a8.107,8.107,0,0,1,8.1-8.019,8.021,8.021,0,0,1,7.938,8.019V-41.8a1.531,1.531,0,0,0,1.62,1.62h12.879a1.531,1.531,0,0,0,1.62-1.62v-31.59a24.234,24.234,0,0,0-24.057-24.138,22.341,22.341,0,0,0-15.8,6.318,23.076,23.076,0,0,0-15.795-6.318,22.127,22.127,0,0,0-15.552,6.318,23.028,23.028,0,0,0-15.957-6.4,24.146,24.146,0,0,0-24.138,24.138Zm134.379-29.4a4.278,4.278,0,0,1,2.025-2.106,5.81,5.81,0,0,1,1.7-.4h26.649a1.469,1.469,0,0,0,1.62-1.539v-12.96a1.531,1.531,0,0,0-1.62-1.62h-30.78a16.178,16.178,0,0,0-16.2,16.119v57.105a24.267,24.267,0,0,0,24.3,24.3,24.216,24.216,0,0,0,24.3-24.3,24.216,24.216,0,0,0-24.3-24.3,24.3,24.3,0,0,0-8.1,1.377V-76.059A3.425,3.425,0,0,1,276.048-77.679Zm7.7,46.413a8.263,8.263,0,0,1,8.181,8.181,8.194,8.194,0,0,1-8.181,8.1,8.124,8.124,0,0,1-8.1-8.1A8.194,8.194,0,0,1,283.743-31.266ZM312.9-1.539a1.531,1.531,0,0,0,1.62,1.62h12.96a1.531,1.531,0,0,0,1.62-1.62V-73.305a8.194,8.194,0,0,1,8.1-8.181,8.194,8.194,0,0,1,8.1,8.181V-1.539a1.531,1.531,0,0,0,1.62,1.62h12.96a1.531,1.531,0,0,0,1.62-1.62V-73.305a24.267,24.267,0,0,0-24.3-24.3,24.371,24.371,0,0,0-24.3,24.3ZM401.922-48.2a1.469,1.469,0,0,0-1.539,1.62v23.49a8.124,8.124,0,0,1-8.1,8.1,8.124,8.124,0,0,1-8.1-8.1V-94.77a1.531,1.531,0,0,0-1.62-1.62H369.522a1.469,1.469,0,0,0-1.539,1.62v71.685a24.371,24.371,0,0,0,24.3,24.3,24.477,24.477,0,0,0,24.3-24.3v-23.49a1.531,1.531,0,0,0-1.62-1.62Zm20.25,46.656a1.531,1.531,0,0,0,1.62,1.62h12.96a1.531,1.531,0,0,0,1.62-1.62V-73.305a8.194,8.194,0,0,1,8.1-8.181,8.194,8.194,0,0,1,8.1,8.181V-1.539a1.531,1.531,0,0,0,1.62,1.62h12.96a1.531,1.531,0,0,0,1.62-1.62V-73.305a24.267,24.267,0,0,0-24.3-24.3,24.371,24.371,0,0,0-24.3,24.3ZM511.191-48.2a1.469,1.469,0,0,0-1.539,1.62v23.49a8.124,8.124,0,0,1-8.1,8.1,8.124,8.124,0,0,1-8.1-8.1V-94.77a1.531,1.531,0,0,0-1.62-1.62H478.791a1.469,1.469,0,0,0-1.539,1.62v71.685a24.371,24.371,0,0,0,24.3,24.3,24.477,24.477,0,0,0,24.3-24.3v-23.49a1.531,1.531,0,0,0-1.62-1.62Z" transform="translate(0 97.778)" fill="#7da83f"/>
        </g>
      </g>
    </g>
    <g id="Group_35" transform="translate(0 114.515)" style="mix-blend-mode: normal;isolation: isolate">
      <g id="Group_34">
        <g id="Group_33" clip-path="url(#clip-path-3)">
          <path id="Path_93" d="M2.43-23A24.285,24.285,0,0,0,26.649,1.215,24.285,24.285,0,0,0,50.868-23V-55.161c0-8.1-2.349-13.041-5.346-16.767C37.179-82.3,27.459-81.081,27.459-91.368v-3.483a1.531,1.531,0,0,0-1.62-1.62H12.96a1.531,1.531,0,0,0-1.62,1.62v3.483c0,1.215-.324,10.368,5.913,16.686,9.558,9.72,17.5,8.262,17.5,20.331V-23a8.177,8.177,0,0,1-8.1,8.1,8.231,8.231,0,0,1-8.1-8.1v-8.019a1.531,1.531,0,0,0-1.62-1.62H4.05a1.531,1.531,0,0,0-1.62,1.62Zm65.205-54.27A20.466,20.466,0,0,1,88.047-97.605c11.016,0,20.088,9.072,20.088,18.792a17.982,17.982,0,0,1-5.265,13.365c12.15,7.128,17.658,16.281,17.658,31.59,0,20.736-13.608,35.073-32.562,35.073-18.63,0-32.238-14.094-32.238-35.073,0-14.742,6.237-24.867,20.655-31.266l11.1-4.941c5.751-2.592,6.4-5.589,6.4-7.128a5.887,5.887,0,0,0-5.832-6.156,6.187,6.187,0,0,0-6.156,6.075,1.531,1.531,0,0,1-1.62,1.62h-11.1A1.469,1.469,0,0,1,67.635-77.274Zm4.293,46.089a16.127,16.127,0,0,0,16.119,16.2,16.213,16.213,0,0,0,16.281-16.2V-36.45a16.213,16.213,0,0,0-16.281-16.2,16.127,16.127,0,0,0-16.119,16.2ZM125.388-1.62A1.469,1.469,0,0,0,126.927,0h13.041a1.531,1.531,0,0,0,1.62-1.62V-23.166a8.177,8.177,0,0,1,8.1-8.1,8.124,8.124,0,0,1,8.1,8.1l.081,20.736v.81A1.469,1.469,0,0,0,159.408,0h12.15a1.531,1.531,0,0,0,1.62-1.62V-23.085a8.177,8.177,0,0,1,8.1-8.1,8.161,8.161,0,0,1,8.019,8.1V-1.62A1.469,1.469,0,0,0,190.836,0h13.041a1.531,1.531,0,0,0,1.62-1.62V-23.085A24.337,24.337,0,0,0,181.278-47.3a21.865,21.865,0,0,0-15.714,6.318c-2.673-2.835-6.966-5.751-10.53-6.156l26.487-23.166c5.184-4.536,7.857-8.829,7.857-17.01V-94.77a1.531,1.531,0,0,0-1.62-1.62H174.717a1.469,1.469,0,0,0-1.539,1.62v7.452a7.746,7.746,0,0,1-2.916,6.237L143.046-57.1c-12.8,11.259-17.658,20.493-17.658,33.129ZM266.247-97.605a23.161,23.161,0,0,0-15.8,6.156,23.161,23.161,0,0,0-15.795-6.156,24.319,24.319,0,0,0-24.3,24.3V-1.62A1.469,1.469,0,0,0,211.9,0h13.041a1.531,1.531,0,0,0,1.62-1.62V-73.305a8.194,8.194,0,0,1,8.1-8.181,8.125,8.125,0,0,1,8.019,8.181V-41.8a1.469,1.469,0,0,0,1.539,1.62h12.312a1.531,1.531,0,0,0,1.62-1.62V-73.305a8.178,8.178,0,0,1,8.019-8.181,8.21,8.21,0,0,1,8.181,8.181V-1.62A1.469,1.469,0,0,0,275.886,0h13.041a1.531,1.531,0,0,0,1.62-1.62V-73.305A24.267,24.267,0,0,0,266.247-97.605Zm29.97,2.835a1.469,1.469,0,0,1,1.539-1.62H310.8a1.531,1.531,0,0,1,1.62,1.62v63.5A16.332,16.332,0,0,0,328.7-14.985a16.144,16.144,0,0,0,16.119-16.281v-4.293a8.141,8.141,0,0,0-8.1-8.181h-5.184a1.469,1.469,0,0,1-1.62-1.539V-56.7a1.531,1.531,0,0,1,1.62-1.62h5.427c5.184,0,7.938-3.321,7.938-7.128,0-9.8-14.094-10.773-15.066-29.322a1.43,1.43,0,0,1,1.539-1.62h13.041c.972,0,1.458.648,1.62,1.62,1.62,12.231,15.714,15.066,15.714,29.4A19.162,19.162,0,0,1,355.1-51.03c4.536,3.483,5.994,9.8,5.994,16.2v3.564A32.408,32.408,0,0,1,328.7,1.215a32.477,32.477,0,0,1-32.481-32.481ZM367.5-36.855a1.469,1.469,0,0,1,1.539-1.62h13.041a1.531,1.531,0,0,1,1.62,1.62v13.77a8.124,8.124,0,0,0,8.1,8.1,8.124,8.124,0,0,0,8.1-8.1v-50.22a8.124,8.124,0,0,0-8.1-8.1,8.124,8.124,0,0,0-8.1,8.1v6.48a1.531,1.531,0,0,1-1.62,1.62H369.036a1.469,1.469,0,0,1-1.539-1.62v-6.48a24.477,24.477,0,0,1,24.3-24.3,24.371,24.371,0,0,1,24.3,24.3v50.22a24.371,24.371,0,0,1-24.3,24.3,24.477,24.477,0,0,1-24.3-24.3Zm71.685-40.824a4.278,4.278,0,0,1,2.025-2.106,5.81,5.81,0,0,1,1.7-.4h26.649a1.469,1.469,0,0,0,1.62-1.539v-12.96a1.531,1.531,0,0,0-1.62-1.62h-30.78a16.178,16.178,0,0,0-16.2,16.119v57.105a24.267,24.267,0,0,0,24.3,24.3,24.216,24.216,0,0,0,24.3-24.3,24.216,24.216,0,0,0-24.3-24.3,24.3,24.3,0,0,0-8.1,1.377V-76.059A3.425,3.425,0,0,1,439.182-77.679Zm7.7,46.413a8.263,8.263,0,0,1,8.181,8.181,8.194,8.194,0,0,1-8.181,8.1,8.124,8.124,0,0,1-8.1-8.1A8.194,8.194,0,0,1,446.877-31.266Zm29.241,0a32.409,32.409,0,0,0,32.4,32.481,32.408,32.408,0,0,0,32.4-32.481V-48.438c0-6.966-1.782-11.664-5.022-15.309l-1.7-1.944c4.536-3.969,7.128-7.938,7.29-13.2,0-10.773-8.181-18.792-18.387-18.792a18.858,18.858,0,0,0-18.792,18.792,18.343,18.343,0,0,0,5.751,12.879l-9.4,7.533a1.442,1.442,0,0,0-.324,2.187l7.29,8.991a1.573,1.573,0,0,0,2.268.243l11.259-9.558a9.008,9.008,0,0,1,3.564,7.047v18.306a16.213,16.213,0,0,1-16.2,16.281,16.264,16.264,0,0,1-16.2-16.281v-63.1a1.531,1.531,0,0,0-1.62-1.62H477.657a1.469,1.469,0,0,0-1.539,1.62Zm42.768-47.79a4.011,4.011,0,0,1,4.05-4.05,3.9,3.9,0,0,1,3.969,4.05,3.975,3.975,0,0,1-3.969,3.969A3.993,3.993,0,0,1,518.886-79.056ZM546.264-1.62A1.469,1.469,0,0,0,547.8,0h13.041a1.531,1.531,0,0,0,1.62-1.62V-23.166a8.177,8.177,0,0,1,8.1-8.1,8.124,8.124,0,0,1,8.1,8.1l.081,20.736v.81A1.469,1.469,0,0,0,580.284,0h12.15a1.531,1.531,0,0,0,1.62-1.62V-23.085a8.177,8.177,0,0,1,8.1-8.1,8.161,8.161,0,0,1,8.019,8.1V-1.62A1.469,1.469,0,0,0,611.712,0h13.041a1.531,1.531,0,0,0,1.62-1.62V-23.085A24.337,24.337,0,0,0,602.154-47.3a21.864,21.864,0,0,0-15.714,6.318c-2.673-2.835-6.966-5.751-10.53-6.156L602.4-70.308c5.184-4.536,7.857-8.829,7.857-17.01V-94.77a1.531,1.531,0,0,0-1.62-1.62H595.593a1.469,1.469,0,0,0-1.539,1.62v7.452a7.746,7.746,0,0,1-2.916,6.237L563.922-57.1c-12.8,11.259-17.658,20.493-17.658,33.129Zm85.779.081a1.531,1.531,0,0,0,1.62,1.62h12.96a1.531,1.531,0,0,0,1.62-1.62V-73.305a8.194,8.194,0,0,1,8.1-8.181,8.194,8.194,0,0,1,8.1,8.181V-1.539a1.531,1.531,0,0,0,1.62,1.62h12.96a1.531,1.531,0,0,0,1.62-1.62V-73.305a24.267,24.267,0,0,0-24.3-24.3,24.371,24.371,0,0,0-24.3,24.3Z" transform="translate(0 97.86)" fill="#7da83f"/>
        </g>
      </g>
    </g>
  </g>
</svg>
