<svg xmlns="http://www.w3.org/2000/svg" width="419.582" height="294.491" viewBox="0 0 419.582 294.491">
  <defs>
    <linearGradient id="linear-gradient-3" x1="0.694" y1="0.044" x2="0.5" y2="1" gradientUnits="objectBoundingBox">
      <stop offset="0" stop-color="#a0be3a"/>
      <stop offset="1" stop-color="#c1cd2f"/>
    </linearGradient>
    <clipPath id="clip-path">
      <rect id="Rectangle_25" width="39.812" height="39.812" transform="translate(0 0)" fill="#ffc10e"/>
    </clipPath>
    <clipPath id="clip-path-2">
      <rect id="Rectangle_28" width="167.433" height="167.433" transform="translate(0 0)" fill="#ffc10e"/>
    </clipPath>
  </defs>
  <g id="Group_180" transform="translate(-111.659 -673)">
    <g id="Group_94" transform="translate(-5027.145 402)">
      <path id="Path_15" d="M82.842,46.531C62.828,59.141,60.076,82.8,60.076,82.8S82.6,90.534,102.62,77.924s22.766-36.269,22.766-36.269-22.53-7.734-42.544,4.876" transform="translate(5129.574 340.854) rotate(-41)" fill="#c1cd2f"/>
      <path id="Path_12" d="M146.26,85.712C17.682,166.723,0,318.721,0,318.721S144.733,368.406,273.323,287.4,419.582,54.387,419.582,54.387,274.837,4.7,146.26,85.712" transform="translate(5138.804 231.692)" fill="url(#linear-gradient-3)"/>
      <path id="Path_14" d="M20.228,42.743c9.516,6,10.824,17.244,10.824,17.244s-10.711,3.677-20.228-2.318S0,40.424,0,40.424s10.712-3.677,20.228,2.318" transform="translate(5335.518 286.653) rotate(99)" fill="#c1cd2f"/>
      <g id="Group_62" transform="translate(5180.797 378.433)" clip-path="url(#clip-path)">
        <path id="Path_13" d="M79.887,85.906A19.906,19.906,0,1,1,59.981,66,19.906,19.906,0,0,1,79.887,85.906" transform="translate(-40.076 -66)" fill="#ffc10e"/>
      </g>
      <g id="Group_93" transform="translate(5296.693 311.173)" clip-path="url(#clip-path-2)">
        <path id="Path_20" d="M207.508,149.717A83.717,83.717,0,1,1,123.792,66a83.717,83.717,0,0,1,83.717,83.717" transform="translate(-40.08 -66)" fill="#ffc10e"/>
      </g>
    </g>
  </g>
</svg>
