<svg xmlns="http://www.w3.org/2000/svg" width="14.75" height="14.709" viewBox="0 0 14.75 14.709">
  <path id="search_FILL0_wght600_GRAD0_opsz20" d="M15.917,17.438,10.854,12.4a5.966,5.966,0,0,1-1.364.635,5.068,5.068,0,0,1-1.573.24,5.1,5.1,0,0,1-3.75-1.542A5.078,5.078,0,0,1,2.625,8,5.078,5.078,0,0,1,4.167,4.271,5.078,5.078,0,0,1,7.9,2.729a5.068,5.068,0,0,1,3.739,1.542A5.1,5.1,0,0,1,13.167,8a5.234,5.234,0,0,1-.229,1.594,5.028,5.028,0,0,1-.646,1.323L17.375,16ZM7.9,11.229A3.2,3.2,0,0,0,11.125,8,3.2,3.2,0,0,0,7.9,4.771a3.126,3.126,0,0,0-2.281.937A3.1,3.1,0,0,0,4.667,8a3.1,3.1,0,0,0,.948,2.292A3.126,3.126,0,0,0,7.9,11.229Z" transform="translate(-2.625 -2.729)" fill="#6c6c6c"/>
</svg>
