<svg xmlns="http://www.w3.org/2000/svg" width="26.188" height="35.212" viewBox="0 0 26.188 35.212">
  <path id="Union_2" d="M-1970.846,34.449a2.488,2.488,0,0,1-.762-1.829,2.49,2.49,0,0,1,.762-1.829,2.491,2.491,0,0,1,1.829-.761,2.5,2.5,0,0,1,1.83.761,2.5,2.5,0,0,1,.76,1.829,2.493,2.493,0,0,1-.76,1.829,2.493,2.493,0,0,1-1.83.762A2.488,2.488,0,0,1-1970.846,34.449Zm-12.953,0a2.491,2.491,0,0,1-.761-1.829,2.492,2.492,0,0,1,.761-1.829,2.493,2.493,0,0,1,1.829-.761,2.494,2.494,0,0,1,1.83.761,2.492,2.492,0,0,1,.761,1.829,2.49,2.49,0,0,1-.761,1.829,2.491,2.491,0,0,1-1.83.762A2.491,2.491,0,0,1-1983.8,34.449Zm1.829-5.714a2.684,2.684,0,0,1-2.476-1.425,2.678,2.678,0,0,1-.05-2.817l1.684-3.011-4.5-9.585H-1990V8.789h4.63l1.23,2.59h18.424a1.772,1.772,0,0,1,1.619.922,1.87,1.87,0,0,1,.032,1.928l-4.177,7.545a2.932,2.932,0,0,1-1.051,1.118,2.731,2.731,0,0,1-1.442.4h-9.488l-1.263,2.331h15.316v3.109ZM-1976.907,8V5h-3V3h3V0h2V3h3V5h-3V8Z" transform="translate(1990)"/>
</svg>
