<svg xmlns="http://www.w3.org/2000/svg" width="41.5" height="41.45" viewBox="0 0 41.5 41.45">
  <path id="task_alt_FILL0_wght600_GRAD0_opsz48" d="M24,44.7a21.018,21.018,0,0,1-8.175-1.575,20.047,20.047,0,0,1-10.95-10.95A21.017,21.017,0,0,1,3.3,24a21.072,21.072,0,0,1,1.575-8.15A19.838,19.838,0,0,1,9.25,9.275a21.076,21.076,0,0,1,6.575-4.4A20.454,20.454,0,0,1,24,3.25a20.436,20.436,0,0,1,7,1.175A21.546,21.546,0,0,1,36.9,7.65L34,10.55a16.369,16.369,0,0,0-10-3.3A16.362,16.362,0,0,0,7.25,24,16.4,16.4,0,0,0,24,40.75,16.4,16.4,0,0,0,40.75,24a15.511,15.511,0,0,0-.225-2.65,22.826,22.826,0,0,0-.575-2.5l3.1-3.15a19.076,19.076,0,0,1,1.275,3.975A21.508,21.508,0,0,1,44.75,24a20.454,20.454,0,0,1-1.625,8.175,21.076,21.076,0,0,1-4.4,6.575,19.838,19.838,0,0,1-6.575,4.375A21.072,21.072,0,0,1,24,44.7ZM21,33.5l-8.55-8.6,2.8-2.85L21,27.8,41.9,6.9l2.9,2.85Z" transform="translate(-3.3 -3.25)" fill="#7da83f"/>
</svg>
