<svg xmlns="http://www.w3.org/2000/svg" width="10.292" height="15.292" viewBox="0 0 10.292 15.292">
  <path id="wine_bar_FILL0_wght600_GRAD0_opsz20" d="M6.354,17.646V15.6H8.979V12.833A4.944,4.944,0,0,1,6,11.083,4.744,4.744,0,0,1,4.854,8V2.354H15.146V8A4.744,4.744,0,0,1,14,11.083a4.944,4.944,0,0,1-2.979,1.75V15.6h2.625v2.042ZM10,10.9a2.971,2.971,0,0,0,1.854-.6,2.915,2.915,0,0,0,1.063-1.521H7.083a2.915,2.915,0,0,0,1.063,1.521A2.971,2.971,0,0,0,10,10.9ZM6.9,6.729H13.1V4.4H6.9ZM10,10.9Z" transform="translate(-4.854 -2.354)" fill="#6c6c6c"/>
</svg>
