<svg xmlns="http://www.w3.org/2000/svg" width="21" height="19.5" viewBox="0 0 21 19.5">
  <path id="favorite_FILL0_wght600_GRAD0_opsz24" d="M11.975,21.65,10.2,20.05q-2.575-2.325-4.262-4.012A25.871,25.871,0,0,1,3.275,13,10.067,10.067,0,0,1,1.9,10.512,7.066,7.066,0,0,1,1.5,8.15,5.827,5.827,0,0,1,3.213,3.875,5.762,5.762,0,0,1,7.475,2.15a6.17,6.17,0,0,1,2.463.5,6.09,6.09,0,0,1,2.037,1.425A6.359,6.359,0,0,1,14.038,2.65a6.1,6.1,0,0,1,2.437-.5,5.894,5.894,0,0,1,6.025,6,7.321,7.321,0,0,1-.387,2.35,9.305,9.305,0,0,1-1.375,2.487,27.847,27.847,0,0,1-2.688,3.038q-1.7,1.7-4.3,4.025Zm0-3.55q2.375-2.15,3.913-3.662A29.009,29.009,0,0,0,18.3,11.812,8.281,8.281,0,0,0,19.513,9.85a4.583,4.583,0,0,0,.337-1.7,3.232,3.232,0,0,0-.962-2.4A3.266,3.266,0,0,0,16.5,4.8a3.667,3.667,0,0,0-2.1.662A3.448,3.448,0,0,0,13.05,7.15H10.925A3.29,3.29,0,0,0,9.588,5.462,3.69,3.69,0,0,0,7.5,4.8,3.248,3.248,0,0,0,4.175,8.15a4.764,4.764,0,0,0,.338,1.725,7.876,7.876,0,0,0,1.225,1.988,31.493,31.493,0,0,0,2.4,2.612Q9.65,15.975,11.975,18.1ZM12.025,11.45Z" transform="translate(-1.5 -2.15)" fill="#ffc10e"/>
</svg>
