<svg xmlns="http://www.w3.org/2000/svg" width="14.792" height="14.792" viewBox="0 0 14.792 14.792">
  <path id="summarize_FILL0_wght600_GRAD0_opsz20" d="M6.75,7.6a.854.854,0,1,0-.6-.25A.823.823,0,0,0,6.75,7.6Zm0,3.25a.854.854,0,1,0-.6-.25A.823.823,0,0,0,6.75,10.854Zm0,3.25a.854.854,0,1,0-.6-.25A.823.823,0,0,0,6.75,14.1ZM4.646,17.4A2.028,2.028,0,0,1,2.6,15.354V4.646A2.028,2.028,0,0,1,4.646,2.6H13L17.4,7v8.354A2.028,2.028,0,0,1,15.354,17.4Zm0-2.042H15.354V8.333H11.667V4.646H4.646Zm0-10.708v0Z" transform="translate(-2.604 -2.604)" fill="#6c6c6c"/>
</svg>
