<svg xmlns="http://www.w3.org/2000/svg" width="14.792" height="16.792" viewBox="0 0 14.792 16.792">
  <path id="event_FILL0_wght600_GRAD0_opsz20" d="M12,15a2,2,0,0,1-1.417-3.417,2,2,0,0,1,2.834,2.834A1.931,1.931,0,0,1,12,15ZM4.646,18.4A2.028,2.028,0,0,1,2.6,16.354V5.646A2.028,2.028,0,0,1,4.646,3.6H6v-2H7.771v2h4.458v-2H14v2h1.354A2.028,2.028,0,0,1,17.4,5.646V16.354A2.028,2.028,0,0,1,15.354,18.4Zm0-2.042H15.354V9H4.646Zm0-8.854H15.354V5.646H4.646Zm0,0v0Z" transform="translate(-2.604 -1.604)" fill="#6c6c6c"/>
</svg>
