<svg id="delete" xmlns="http://www.w3.org/2000/svg" width="44" height="44" viewBox="0 0 44 44">
  <circle id="Ellipse_26" cx="22" cy="22" r="22" fill="#fff"/>
  <path id="delete_forever_FILL0_wght600_GRAD0_opsz24" d="M9.45,16.7,12,14.15l2.55,2.55,1.65-1.65L13.65,12.5,16.2,9.95,14.55,8.3,12,10.85,9.45,8.3,7.8,9.95l2.55,2.55L7.8,15.05Zm-2.6,4.775a2.606,2.606,0,0,1-2.65-2.65V6.15H2.875V3.5h5.8V2.175H15.3V3.5h5.825V6.15H19.8V18.825a2.6,2.6,0,0,1-2.65,2.65ZM17.15,6.15H6.85V18.825h10.3Zm-10.3,0v0Z" transform="translate(10.26 9.825)" fill="#e2e2e2"/>
</svg>
