<svg xmlns="http://www.w3.org/2000/svg" width="14.5" height="14.437" viewBox="0 0 14.5 14.437">
  <path id="psychiatry_FILL0_wght600_GRAD0_opsz20" d="M9.042,17.208V11.042H8.854a5.845,5.845,0,0,1-2.26-.49,6.428,6.428,0,0,1-1.927-1.3A6.078,6.078,0,0,1,3.24,7.188,6.236,6.236,0,0,1,2.75,4.75V2.771H4.729A6.238,6.238,0,0,1,7.1,3.229a6.028,6.028,0,0,1,2,1.333,5.133,5.133,0,0,1,.948,1.178A7.816,7.816,0,0,1,10.688,7.1a1.07,1.07,0,0,0-.115.136.647.647,0,0,1-.135.135,5.426,5.426,0,0,1,2.124-1.75,6.323,6.323,0,0,1,2.709-.6H17.25V7a6.36,6.36,0,0,1-.479,2.438A5.958,5.958,0,0,1,15.354,11.5a6.611,6.611,0,0,1-1.844,1.146,5.792,5.792,0,0,1-2.114.437h-.438v4.125Zm0-8.166a4.79,4.79,0,0,0-.3-1.615,3.973,3.973,0,0,0-.948-1.489,3.893,3.893,0,0,0-1.417-.907,5.168,5.168,0,0,0-1.687-.323A5.763,5.763,0,0,0,5.021,6.4a3.659,3.659,0,0,0,.917,1.416,3.9,3.9,0,0,0,1.416.907A5.17,5.17,0,0,0,9.042,9.042Zm1.937,2.27a4.79,4.79,0,0,0,1.615-.3,3.973,3.973,0,0,0,1.489-.948,3.9,3.9,0,0,0,.907-1.416,5.566,5.566,0,0,0,.343-1.688,5.13,5.13,0,0,0-1.7.323,4.12,4.12,0,0,0-1.427.907A3.883,3.883,0,0,0,11.3,9.615,5.26,5.26,0,0,0,10.979,11.312ZM10.979,11.312ZM9.042,9.042Z" transform="translate(-2.75 -2.771)" fill="#6c6c6c"/>
</svg>
