<svg xmlns="http://www.w3.org/2000/svg" width="21.72" height="21.72" viewBox="0 0 21.72 21.72">
  <path id="icons8-instagram" d="M9.033,3A6.034,6.034,0,0,0,3,9.033v9.653A6.034,6.034,0,0,0,9.033,24.72h9.653a6.034,6.034,0,0,0,6.033-6.033V9.033A6.034,6.034,0,0,0,18.687,3ZM21.1,5.413A1.207,1.207,0,1,1,19.893,6.62,1.207,1.207,0,0,1,21.1,5.413ZM13.86,7.827A6.033,6.033,0,1,1,7.827,13.86,6.034,6.034,0,0,1,13.86,7.827Zm0,2.413a3.62,3.62,0,1,0,3.62,3.62,3.62,3.62,0,0,0-3.62-3.62Z" transform="translate(-3 -3)" fill="#6c6c6c"/>
</svg>
