<svg xmlns="http://www.w3.org/2000/svg" width="13.292" height="15.958" viewBox="0 0 13.292 15.958">
  <path id="humidity_low_FILL0_wght600_GRAD0_opsz20" d="M10,17.4A6.474,6.474,0,0,1,5.3,15.49a6.244,6.244,0,0,1-1.948-4.636,6.352,6.352,0,0,1,.5-2.51A6.672,6.672,0,0,1,5.229,6.271L10,1.438l4.792,4.854a6.906,6.906,0,0,1,1.354,2.062,6.28,6.28,0,0,1,.5,2.5A6.244,6.244,0,0,1,14.7,15.49,6.474,6.474,0,0,1,10,17.4Zm0-2.042a4.492,4.492,0,0,0,3.26-1.312A4.29,4.29,0,0,0,14.6,10.854a4.137,4.137,0,0,0-.354-1.708,5.384,5.384,0,0,0-.917-1.417L10,4.354,6.667,7.708A5.332,5.332,0,0,0,5.75,9.135,4.214,4.214,0,0,0,5.4,10.854,4.29,4.29,0,0,0,6.74,14.042,4.492,4.492,0,0,0,10,15.354Z" transform="translate(-3.354 -1.438)" fill="#6c6c6c"/>
</svg>
