<svg xmlns="http://www.w3.org/2000/svg" width="33.002" height="28.403" viewBox="0 0 33.002 28.403">
  <path id="Path_11" d="M18.606,5.546a7.087,7.087,0,0,1,.57-2.833A7.52,7.52,0,0,1,20.722.395a7.143,7.143,0,0,1,2.3-1.564,7.322,7.322,0,0,1,5.666,0,7.143,7.143,0,0,1,2.3,1.564,7.52,7.52,0,0,1,1.545,2.318,7.087,7.087,0,0,1,.57,2.833,7.219,7.219,0,0,1-.57,2.851,7.462,7.462,0,0,1-1.545,2.336,7.143,7.143,0,0,1-2.3,1.564,7.322,7.322,0,0,1-5.666,0,7.143,7.143,0,0,1-2.3-1.564A7.462,7.462,0,0,1,19.176,8.4,7.219,7.219,0,0,1,18.606,5.546Zm10.743,0a3.438,3.438,0,0,0-1.012-2.5,3.508,3.508,0,0,0-4.967,0,3.438,3.438,0,0,0-1.012,2.5,3.482,3.482,0,0,0,1.012,2.539,3.508,3.508,0,0,0,4.967,0A3.482,3.482,0,0,0,29.349,5.546ZM.1-6.779A7.087,7.087,0,0,1,.67-9.612,7.52,7.52,0,0,1,2.216-11.93a7.143,7.143,0,0,1,2.3-1.564,7.087,7.087,0,0,1,2.833-.57,7.087,7.087,0,0,1,2.833.57,7.143,7.143,0,0,1,2.3,1.564,7.52,7.52,0,0,1,1.545,2.318,7.087,7.087,0,0,1,.57,2.833,7.087,7.087,0,0,1-.57,2.833A7.52,7.52,0,0,1,12.48-1.629a7.143,7.143,0,0,1-2.3,1.564,7.087,7.087,0,0,1-2.833.57,7.087,7.087,0,0,1-2.833-.57,7.143,7.143,0,0,1-2.3-1.564A7.52,7.52,0,0,1,.67-3.947,7.087,7.087,0,0,1,.1-6.779Zm10.743,0a3.438,3.438,0,0,0-1.012-2.5,3.346,3.346,0,0,0-2.483-1.03,3.346,3.346,0,0,0-2.483,1.03,3.438,3.438,0,0,0-1.012,2.5,3.438,3.438,0,0,0,1.012,2.5,3.346,3.346,0,0,0,2.483,1.03,3.346,3.346,0,0,0,2.483-1.03A3.438,3.438,0,0,0,10.843-6.779Zm11.7-8.021,3.09,1.729L10.438,13.6l-2.8-1.582Z" transform="translate(-0.1 14.8)" fill="#fff"/>
</svg>
