<svg xmlns="http://www.w3.org/2000/svg" width="12.876" height="12.792" viewBox="0 0 12.876 12.792">
  <path id="refresh_FILL0_wght600_GRAD0_opsz20" d="M9.958,16.4a6.152,6.152,0,0,1-4.531-1.875A6.178,6.178,0,0,1,3.562,10,6.178,6.178,0,0,1,5.427,5.479,6.152,6.152,0,0,1,9.958,3.6a6.1,6.1,0,0,1,2.688.594,6.422,6.422,0,0,1,2.1,1.614V3.6h1.688V9.167H10.854V7.5h2.667A4.419,4.419,0,0,0,11.99,6.146a4.216,4.216,0,0,0-2.032-.5A4.34,4.34,0,0,0,5.6,10a4.34,4.34,0,0,0,4.354,4.354,4.1,4.1,0,0,0,2.875-1.114A4.376,4.376,0,0,0,14.25,10.5h2.1a6.256,6.256,0,0,1-2.031,4.2A6.181,6.181,0,0,1,9.958,16.4Z" transform="translate(-3.562 -3.604)" fill="#6c6c6c"/>
</svg>
