<svg xmlns="http://www.w3.org/2000/svg" width="115.244" height="115.875" viewBox="0 0 33.244 33.875">
  <path id="shopping_cart_FILL0_wght600_GRAD0_opsz40" d="M11.875,36.917A3.131,3.131,0,0,1,8.75,33.792a2.963,2.963,0,0,1,.917-2.167,3.008,3.008,0,0,1,2.208-.917,2.939,2.939,0,0,1,2.187.917,3.046,3.046,0,0,1,.9,2.208,2.944,2.944,0,0,1-.916,2.188A3,3,0,0,1,11.875,36.917Zm16.667,0a3.129,3.129,0,0,1-3.125-3.125,2.965,2.965,0,0,1,.916-2.167,3.011,3.011,0,0,1,2.209-.917,2.941,2.941,0,0,1,2.187.917,3.046,3.046,0,0,1,.9,2.208,2.942,2.942,0,0,1-.917,2.188A2.994,2.994,0,0,1,28.542,36.917ZM10.458,9.708l3.917,8.209H26.208l4.459-8.209ZM8.75,6.333H32.583A2.174,2.174,0,0,1,34.562,7.5a2.25,2.25,0,0,1,.021,2.375l-5.291,9.542A4.158,4.158,0,0,1,28,20.771a3.188,3.188,0,0,1-1.792.521H13.833l-2,3.708H31.917v3.375H11.583A3.175,3.175,0,0,1,8.667,26.9a2.926,2.926,0,0,1,0-3.146l2.458-4.458L5.083,6.417H1.667V3.042H7.208Zm5.625,11.584h0Z" transform="translate(-1.667 -3.042)" fill="#fff"/>
</svg>
