<svg xmlns="http://www.w3.org/2000/svg" width="20.95" height="20.95" viewBox="0 0 20.95 20.95">
  <path id="sms_FILL0_wght600_GRAD0_opsz24" d="M7.775,11.175a1.155,1.155,0,1,0-.837-.338,1.138,1.138,0,0,0,.837.338Zm4.225,0a1.155,1.155,0,1,0-.837-.338A1.138,1.138,0,0,0,12,11.175Zm4.225,0a1.155,1.155,0,1,0-.837-.338A1.135,1.135,0,0,0,16.225,11.175Zm-14.7,11.3V4.175a2.6,2.6,0,0,1,2.65-2.65h15.65a2.6,2.6,0,0,1,2.65,2.65v11.65a2.6,2.6,0,0,1-2.65,2.65H5.525ZM4.175,16.5l.65-.675h15V4.175H4.175Zm0-12.325v0Z" transform="translate(-1.525 -1.525)" fill="#fff"/>
</svg>
